<?xml version="1.0" encoding="utf-8"?>
<!-- Generator: Adobe Illustrator 23.1.0, SVG Export Plug-In . SVG Version: 6.00 Build 0)  -->
<svg version="1.1" id="图层_1" xmlns="http://www.w3.org/2000/svg" xmlns:xlink="http://www.w3.org/1999/xlink" x="0px" y="0px"
	 viewBox="0 0 472.2 472.1" style="enable-background:new 0 0 472.2 472.1;" xml:space="preserve">
<style type="text/css">
	.st0{clip-path:url(#SVGID_2_);}
</style>
<g>
	<g>
		<defs>
			<rect id="SVGID_1_" x="0.1" width="472.1" height="472.1"/>
		</defs>
		<clipPath id="SVGID_2_">
			<use xlink:href="#SVGID_1_"  style="overflow:visible;"/>
		</clipPath>
		<path class="st0" d="M457.2,178.8c-3,0-5.9-0.9-8.4-2.6L228.6,27.6c-6.9-4.6-8.7-13.9-4-20.8c4.6-6.9,13.9-8.7,20.8-4l220.3,148.6
			c6.9,4.6,8.7,13.9,4,20.8C466.7,176.5,462,178.8,457.2,178.8L457.2,178.8z M457.2,178.8"/>
		<path class="st0" d="M16.9,179.1c-4.8,0-9.5-2.3-12.4-6.5c-4.7-6.8-2.9-16.1,3.9-20.8l218-148.9c6.8-4.7,16.1-2.9,20.8,3.9
			c4.7,6.8,2.9,16.1-3.9,20.8l-218,148.9C22.9,178.2,19.9,179.1,16.9,179.1L16.9,179.1z M16.9,179.1"/>
		<path class="st0" d="M456.4,181.1H15c-8.3,0-15-6.7-15-15c0-8.3,6.7-15,15-15h441.5c8.3,0,15,6.7,15,15
			C471.4,174.4,464.7,181.1,456.4,181.1L456.4,181.1z M456.4,471.5H15c-8.3,0-15-6.7-15-15c0-8.3,6.7-15,15-15h441.5
			c8.3,0,15,6.7,15,15C471.4,464.8,464.7,471.5,456.4,471.5L456.4,471.5z M456.4,471.5"/>
	</g>
	<path d="M60.6,469.8c-7.4,0-13.3-6-13.3-13.3V166.1c0-7.4,6-13.3,13.3-13.3c7.4,0,13.3,6,13.3,13.3v290.4
		C73.9,463.8,67.9,469.8,60.6,469.8L60.6,469.8z M176.8,471.5c-8.3,0-15-6.7-15-15V166.1c0-8.3,6.7-15,15-15c8.3,0,15,6.7,15,15
		v290.4C191.8,464.8,185.1,471.5,176.8,471.5L176.8,471.5z M293.1,471.5c-8.3,0-15-6.7-15-15V166.1c0-8.3,6.7-15,15-15
		c8.3,0,15,6.7,15,15v290.4C308,464.8,301.3,471.5,293.1,471.5L293.1,471.5z M409.3,471.5c-8.3,0-15-6.7-15-15V166.1
		c0-8.3,6.7-15,15-15c8.3,0,15,6.7,15,15v290.4C424.3,464.8,417.6,471.5,409.3,471.5L409.3,471.5z M232.7,145.6
		c-23.8,0-43.1-19.3-43.1-43.1c0-23.8,19.3-43.1,43.1-43.1c23.8,0,43.1,19.3,43.1,43.1C275.9,126.3,256.5,145.6,232.7,145.6
		L232.7,145.6z M232.7,79.3c-12.8,0-23.2,10.4-23.2,23.2c0,12.8,10.4,23.2,23.2,23.2c12.8,0,23.2-10.4,23.2-23.2
		C255.9,89.7,245.5,79.3,232.7,79.3L232.7,79.3z M232.7,79.3"/>
</g>
</svg>
