<?xml version="1.0" encoding="utf-8"?>
<!-- Generator: Adobe Illustrator 23.1.0, SVG Export Plug-In . SVG Version: 6.00 Build 0)  -->
<svg version="1.1" id="图层_1" xmlns="http://www.w3.org/2000/svg" xmlns:xlink="http://www.w3.org/1999/xlink" x="0px" y="0px"
	 viewBox="0 0 716 651.8" style="enable-background:new 0 0 716 651.8;" xml:space="preserve">
<style type="text/css">
	.st0{clip-path:url(#SVGID_2_);}
</style>
<g>
	<g>
		<defs>
			<rect id="SVGID_1_" x="0.1" width="715.9" height="651.8"/>
		</defs>
		<clipPath id="SVGID_2_">
			<use xlink:href="#SVGID_1_"  style="overflow:visible;"/>
		</clipPath>
		<path class="st0" d="M698.8,608.9h-49.8V168c0-9-5.1-17.3-13.9-22.8c-6.8-4.2-15.7-6.5-24.9-6.5H475.4v-105
			c0-9.6-4.7-18.7-12.9-25C455.2,3.1,445.8,0,435.9,0H102.5c-9.9,0-19.4,3.1-26.6,8.7c-8.2,6.3-12.9,15.4-12.9,25v572.1
			c0,0.9-0.1,1.7-0.1,2.6H17.1c-9.4,0-17.1,11.6-17.1,21c0,9.4,7.7,21.4,17.1,21.4h681.7c9.4,0,17.1-11,17.1-20.5
			C715.9,621,708.3,608.9,698.8,608.9L698.8,608.9z M604.1,173.7c5.5,0,9.1,1.6,10.5,2.7L614,609.1l-136.8-0.2
			c0.1-0.9,0.2-1.7,0.2-2.5l-1-432.7H604.1z M99.2,606.2L97.6,65.1c0-1.9,0.2-32.5,32.5-32.5h292.9c6.9,0,16.1,3.2,16.1,5.1v568.6
			c0,0.7-0.6,1.6-1.8,2.5H100.9C99.8,607.9,99.2,606.9,99.2,606.2L99.2,606.2z M99.2,606.2"/>
	</g>
	<path d="M371.4,95.5H167.3c-7.7,0-14,6.9-14,15.4c0,8.5,6.2,15.4,14,15.4h204.2c7.7,0,14-6.9,14-15.4
		C385.4,102.4,379.1,95.5,371.4,95.5L371.4,95.5z M371.4,95.5"/>
	<path d="M371.4,207.4H167.3c-7.7,0-14,6.9-14,15.4c0,8.5,6.2,15.4,14,15.4h204.2c7.7,0,14-6.9,14-15.4
		C385.4,214.2,379.1,207.4,371.4,207.4L371.4,207.4z M371.4,207.4"/>
	<path d="M371.4,329.3H167.3c-7.7,0-14,6.9-14,15.4c0,8.5,6.2,15.4,14,15.4h204.2c7.7,0,14-6.9,14-15.4
		C385.4,336.2,379.1,329.3,371.4,329.3L371.4,329.3z M371.4,329.3"/>
	<path d="M371.4,449.3H167.3c-7.7,0-14,6.9-14,15.3c0,8.5,6.2,15.4,14,15.4h204.2c7.7,0,14-6.9,14-15.4
		C385.4,456.2,379.1,449.3,371.4,449.3L371.4,449.3z M371.4,449.3"/>
</g>
</svg>
